<svg width="215" height="85" viewBox="0 0 215 85" fill="none" xmlns="http://www.w3.org/2000/svg">
<path d="M12 19V45.6296C12 47.8387 13.7909 49.6296 16 49.6296H24.1508C26.36 49.6296 28.1508 47.8387 28.1508 45.6296V41.5495C28.1508 39.3404 29.9417 37.5495 32.1508 37.5495H50.5196C52.7287 37.5495 54.5196 39.3404 54.5196 41.5495V45.6296C54.5196 47.8387 56.3104 49.6296 58.5196 49.6296H67C69.2091 49.6296 71 47.8387 71 45.6296V19C71 16.7908 69.2091 15 67 15H16C13.7909 15 12 16.7908 12 19Z" fill="black"/>
<rect x="17.4884" y="54.3827" width="15.093" height="15.6173" rx="2" fill="black"/>
<rect x="49.7326" y="54.3827" width="15.093" height="15.6173" rx="2" fill="black"/>
<path d="M95.808 38.744C95.264 38.744 94.752 38.6747 94.272 38.536C93.792 38.3867 93.408 38.168 93.12 37.88C92.9493 37.7093 92.8053 37.5227 92.688 37.32C92.5813 37.1067 92.496 36.8827 92.432 36.648C92.3787 36.4027 92.336 36.152 92.304 35.896C92.2827 35.64 92.2773 35.384 92.288 35.128C93.888 35.5227 95.0667 35.688 95.824 35.624C96.5813 35.5493 96.96 35.224 96.96 34.648C96.96 34.1787 96.64 33.8587 96 33.688C95.36 33.5173 94.176 33.3787 92.448 33.272C92.4693 33.016 92.4907 32.7173 92.512 32.376C92.544 32.0347 92.576 31.736 92.608 31.48C93.6107 31.512 94.4053 31.5067 94.992 31.464C95.5787 31.4107 95.9947 31.2933 96.24 31.112C96.496 30.92 96.6187 30.6373 96.608 30.264C96.5973 29.9547 96.4587 29.7307 96.192 29.592C95.9253 29.4427 95.5147 29.3573 94.96 29.336C94.416 29.3147 93.7173 29.336 92.864 29.4C93.0773 27.896 93.2747 26.4987 93.456 25.208C93.6373 23.9067 93.824 22.648 94.016 21.432C94.112 20.8773 94.032 20.5147 93.776 20.344C93.52 20.1733 93.1627 20.1093 92.704 20.152C92.2453 20.1947 91.744 20.2693 91.2 20.376C90.6667 20.4827 90.1547 20.5413 89.664 20.552C89.184 20.5627 88.784 20.4507 88.464 20.216C88.1547 19.9707 88 19.5227 88 18.872C88 18.52 88.0853 18.232 88.256 18.008C88.4373 17.784 88.6987 17.6133 89.04 17.496C89.392 17.368 89.8133 17.272 90.304 17.208C90.4213 17.1867 90.5493 17.1707 90.688 17.16C90.8267 17.1387 90.9707 17.1227 91.12 17.112C91.3333 17.0907 91.52 17.0693 91.68 17.048C91.8507 17.016 92.0053 16.9947 92.144 16.984C92.5387 16.9307 92.912 16.8827 93.264 16.84C93.6267 16.7973 94.0213 16.7493 94.448 16.696C94.5227 16.6853 94.5973 16.6747 94.672 16.664C94.7573 16.6533 94.8427 16.6427 94.928 16.632C95.024 16.6213 95.1147 16.6107 95.2 16.6C95.296 16.5893 95.3867 16.5787 95.472 16.568C95.568 16.5573 95.6533 16.5467 95.728 16.536C95.8133 16.5253 95.8827 16.52 95.936 16.52C97.1093 16.3813 98.1387 16.2747 99.024 16.2C99.92 16.1147 100.661 16.088 101.248 16.12C101.845 16.152 102.293 16.2587 102.592 16.44C102.891 16.6213 103.04 16.9093 103.04 17.304C103.04 17.6987 102.869 18.008 102.528 18.232C102.197 18.4453 101.765 18.6107 101.232 18.728C100.709 18.8453 100.16 18.9467 99.584 19.032C99.008 19.1173 98.4747 19.2293 97.984 19.368C97.4933 19.496 97.1147 19.6827 96.848 19.928C96.5813 20.1733 96.5013 20.5147 96.608 20.952C97.088 22.9147 97.552 24.6693 98 26.216C98.448 27.7627 98.8373 29.1387 99.168 30.344C99.4987 31.5387 99.728 32.5947 99.856 33.512C99.9947 34.4187 99.984 35.2187 99.824 35.912C99.6747 36.5947 99.3387 37.1973 98.816 37.72C98.464 38.072 98.016 38.3333 97.472 38.504C96.9387 38.664 96.384 38.744 95.808 38.744ZM95.2 19.032C94.944 19.032 94.7413 18.968 94.592 18.84C94.4427 18.712 94.368 18.5307 94.368 18.296C94.368 18.0507 94.4373 17.8587 94.576 17.72C94.7253 17.5707 94.912 17.496 95.136 17.496C95.3813 17.496 95.568 17.5653 95.696 17.704C95.8347 17.832 95.904 17.9867 95.904 18.168C95.904 18.4347 95.8347 18.648 95.696 18.808C95.5573 18.9573 95.392 19.032 95.2 19.032ZM96.8 38.136L96.992 35.704C97.344 35.7467 97.632 35.8053 97.856 35.88C98.0907 35.9547 98.2613 36.0667 98.368 36.216C98.4853 36.3547 98.544 36.5573 98.544 36.824C98.544 37.24 98.48 37.544 98.352 37.736C98.224 37.928 98.032 38.0507 97.776 38.104C97.52 38.1467 97.1947 38.1573 96.8 38.136ZM97.024 25.112L96.448 27.224C96.1387 27.1387 95.888 27.0533 95.696 26.968C95.504 26.8827 95.3653 26.776 95.28 26.648C95.1947 26.52 95.152 26.3653 95.152 26.184C95.152 25.7467 95.2267 25.4427 95.376 25.272C95.5253 25.1013 95.7387 25.016 96.016 25.016C96.2933 25.0053 96.6293 25.0373 97.024 25.112ZM104.399 36.952C104.271 35.384 104.153 33.4907 104.047 31.272C103.94 29.0427 103.887 26.616 103.887 23.992C103.887 23.256 103.94 22.5733 104.047 21.944C104.153 21.304 104.313 20.7173 104.527 20.184C104.58 20.056 104.633 19.928 104.687 19.8C104.751 19.672 104.815 19.5493 104.879 19.432C104.943 19.3253 105.001 19.224 105.055 19.128C105.119 19.032 105.188 18.936 105.263 18.84C105.359 18.6907 105.465 18.552 105.583 18.424C105.7 18.296 105.817 18.1733 105.935 18.056C106.031 17.96 106.132 17.864 106.239 17.768C106.345 17.672 106.457 17.5867 106.575 17.512C106.692 17.4267 106.815 17.3467 106.943 17.272C107.071 17.1867 107.204 17.1067 107.343 17.032C107.972 16.7013 108.671 16.456 109.439 16.296C110.217 16.136 111.076 16.056 112.015 16.056C113.156 16.056 114.207 16.2 115.167 16.488C116.137 16.7653 116.975 17.192 117.679 17.768C118.393 18.344 118.943 19.0747 119.326 19.96C119.721 20.8453 119.919 21.8907 119.919 23.096C119.919 24.472 119.631 25.608 119.055 26.504C118.489 27.4 117.737 28.072 116.799 28.52C115.86 28.9573 114.841 29.176 113.743 29.176C112.633 29.176 111.684 28.9947 110.895 28.632C110.105 28.2587 109.503 27.7307 109.087 27.048C108.671 26.3547 108.463 25.528 108.463 24.568C108.463 23.256 108.815 22.2533 109.519 21.56C110.223 20.856 111.14 20.504 112.271 20.504C113.38 20.504 114.185 20.792 114.687 21.368C115.188 21.944 115.439 22.5947 115.439 23.32C115.439 23.8107 115.332 24.1573 115.119 24.36C114.916 24.5627 114.639 24.664 114.287 24.664C113.935 24.664 113.684 24.5627 113.535 24.36C113.385 24.1467 113.263 23.9067 113.167 23.64C113.081 23.3733 112.959 23.1387 112.799 22.936C112.649 22.7227 112.388 22.616 112.015 22.616C111.599 22.616 111.289 22.7653 111.087 23.064C110.895 23.3627 110.799 23.7467 110.799 24.216C110.799 25.1227 111.087 25.8053 111.663 26.264C112.249 26.712 112.964 26.936 113.807 26.936C114.895 26.936 115.78 26.632 116.463 26.024C117.145 25.416 117.487 24.472 117.487 23.192C117.487 21.5707 116.975 20.36 115.951 19.56C114.937 18.76 113.668 18.36 112.143 18.36C110.628 18.36 109.428 18.6267 108.543 19.16C107.657 19.6933 107.055 20.4773 106.735 21.512C106.415 22.5467 106.34 23.8107 106.511 25.304C106.66 26.5307 106.788 27.496 106.895 28.2C107.012 28.8933 107.129 29.4 107.247 29.72C107.375 30.04 107.519 30.248 107.679 30.344C107.849 30.44 108.057 30.5093 108.303 30.552C108.815 30.6267 109.332 30.7013 109.855 30.776C110.377 30.84 110.884 30.904 111.375 30.968C111.151 32.0027 111.103 32.744 111.231 33.192C111.359 33.6293 111.652 33.848 112.111 33.848C112.463 33.848 112.74 33.6773 112.943 33.336C113.156 32.984 113.316 32.3227 113.423 31.352C113.796 31.384 114.159 31.432 114.511 31.496C114.873 31.5493 115.215 31.608 115.535 31.672C115.151 33.4747 114.996 34.7333 115.071 35.448C115.156 36.152 115.503 36.504 116.111 36.504C116.356 36.504 116.575 36.3867 116.767 36.152C116.969 35.9173 117.145 35.48 117.295 34.84C117.444 34.1893 117.572 33.2507 117.679 32.024C118.276 32.1413 118.777 32.3227 119.183 32.568C119.588 32.8027 119.919 33.0853 120.175 33.416C120.431 33.736 120.612 34.088 120.719 34.472C120.836 34.856 120.895 35.256 120.895 35.672C120.895 37.0587 120.564 38.168 119.903 39C119.252 39.8427 118.26 40.264 116.927 40.264C116.372 40.264 115.828 40.152 115.295 39.928C114.772 39.7147 114.244 39.4053 113.711 39C113.177 38.6053 112.639 38.1413 112.095 37.608C111.551 37.064 110.991 36.4667 110.415 35.816C109.849 35.1547 109.252 34.4667 108.623 33.752C108.356 33.4427 108.111 33.3253 107.887 33.4C107.663 33.4747 107.567 33.6667 107.599 33.976C107.663 34.5307 107.743 35.08 107.839 35.624C107.945 36.168 108.036 36.7067 108.111 37.24C108.207 38.04 108.132 38.6267 107.887 39C107.641 39.384 107.119 39.576 106.319 39.576C105.636 39.576 105.167 39.3573 104.911 38.92C104.655 38.472 104.484 37.816 104.399 36.952ZM105.743 38.552C105.508 38.5627 105.327 38.4773 105.199 38.296C105.071 38.1147 105.007 37.9227 105.007 37.72C105.007 37.528 105.06 37.3573 105.167 37.208C105.273 37.048 105.444 36.9627 105.679 36.952L105.743 38.552ZM105.327 35.832C105.103 35.832 104.932 35.7413 104.815 35.56C104.708 35.368 104.655 35.1707 104.655 34.968C104.655 34.7227 104.719 34.504 104.847 34.312C104.975 34.1093 105.167 34.008 105.423 34.008L105.327 35.832ZM118.767 38.136C118.5 38.136 118.287 38.0613 118.127 37.912C117.977 37.7627 117.903 37.5707 117.903 37.336C117.903 36.9627 117.977 36.696 118.127 36.536C118.287 36.3653 118.479 36.28 118.703 36.28C119.076 36.28 119.343 36.36 119.503 36.52C119.673 36.6693 119.759 36.856 119.759 37.08C119.759 37.4107 119.668 37.672 119.487 37.864C119.316 38.0453 119.076 38.136 118.767 38.136ZM122.881 36.76C122.998 35.3413 123.126 33.768 123.265 32.04C123.414 30.312 123.563 28.5573 123.713 26.776C123.723 26.6693 123.734 26.5627 123.745 26.456C123.755 26.3493 123.766 26.2427 123.777 26.136C123.787 26.0293 123.798 25.9227 123.809 25.816C123.819 25.688 123.83 25.5653 123.841 25.448C123.851 25.32 123.862 25.192 123.873 25.064C123.883 24.936 123.894 24.8133 123.905 24.696C123.926 24.4933 123.942 24.296 123.953 24.104C123.974 23.9013 123.995 23.6987 124.017 23.496C124.038 23.3147 124.054 23.1333 124.065 22.952C124.086 22.7707 124.102 22.5947 124.113 22.424C124.134 22.232 124.15 22.0453 124.161 21.864C124.182 21.672 124.198 21.4907 124.209 21.32C124.23 21.192 124.246 21.064 124.257 20.936C124.267 20.808 124.278 20.6853 124.289 20.568C124.374 19.7147 124.609 19.0907 124.993 18.696C125.387 18.3013 125.995 17.9867 126.817 17.752C127.297 17.6133 127.867 17.4693 128.529 17.32C129.201 17.1707 129.889 17.032 130.593 16.904C131.307 16.7653 131.958 16.6587 132.545 16.584C133.131 16.4987 133.585 16.456 133.905 16.456C134.843 16.456 135.531 16.7547 135.969 17.352C136.406 17.9387 136.625 18.7227 136.625 19.704C136.625 20.536 136.491 21.304 136.225 22.008C135.969 22.712 135.59 23.2507 135.089 23.624C134.587 23.9867 133.974 24.0773 133.249 23.896C133.473 23.0747 133.659 22.3387 133.809 21.688C133.969 21.0373 134.006 20.5253 133.921 20.152C133.835 19.768 133.542 19.576 133.041 19.576C132.582 19.576 132.262 19.8853 132.081 20.504C131.899 21.1227 131.691 22.1253 131.457 23.512C131.169 23.4267 130.902 23.3573 130.657 23.304C130.411 23.24 130.134 23.1707 129.825 23.096C129.921 21.72 129.926 20.792 129.841 20.312C129.766 19.8213 129.494 19.576 129.025 19.576C128.726 19.576 128.502 19.6667 128.353 19.848C128.203 20.0187 128.102 20.3173 128.049 20.744C128.006 21.1707 127.99 21.752 128.001 22.488C127.905 22.456 127.809 22.4347 127.713 22.424C127.617 22.4027 127.521 22.392 127.425 22.392C127.158 22.392 126.961 22.4667 126.833 22.616C126.715 22.7653 126.646 22.9787 126.625 23.256C126.561 24.344 126.518 25.4427 126.497 26.552C126.475 27.6507 126.465 28.728 126.465 29.784C126.465 30.0827 126.571 30.3013 126.785 30.44C127.009 30.5787 127.329 30.584 127.745 30.456C128.705 30.1467 129.547 29.8853 130.273 29.672C130.998 29.4587 131.542 29.304 131.905 29.208C132.417 29.08 132.822 29.1653 133.121 29.464C133.419 29.7627 133.569 30.1147 133.569 30.52C133.569 30.7973 133.483 31.064 133.313 31.32C133.142 31.5653 132.865 31.736 132.481 31.832C132.342 31.864 132.198 31.9013 132.049 31.944C131.91 31.976 131.766 32.008 131.617 32.04C131.531 32.0613 131.446 32.0827 131.361 32.104C131.275 32.1253 131.19 32.1467 131.105 32.168C131.03 32.1787 130.961 32.1947 130.897 32.216C130.833 32.2267 130.769 32.2427 130.705 32.264C130.598 32.2853 130.497 32.312 130.401 32.344C130.305 32.3653 130.203 32.3867 130.097 32.408C130.054 32.4187 130.006 32.4293 129.953 32.44C129.91 32.4507 129.862 32.4613 129.809 32.472C129.766 32.4827 129.718 32.4933 129.665 32.504C129.611 32.5147 129.558 32.5253 129.505 32.536C129.462 32.5467 129.414 32.5627 129.361 32.584C129.307 32.5947 129.254 32.6053 129.201 32.616C129.051 32.648 128.902 32.6853 128.753 32.728C128.614 32.76 128.481 32.792 128.353 32.824C128.001 32.9093 127.777 33.032 127.681 33.192C127.595 33.352 127.574 33.56 127.617 33.816C127.67 34.1147 127.75 34.504 127.857 34.984C127.963 35.4533 128.086 35.864 128.225 36.216C128.342 36.504 128.486 36.68 128.657 36.744C128.827 36.808 129.046 36.792 129.312 36.696C130.017 36.4187 130.801 36.1147 131.665 35.784C132.539 35.4533 133.249 35.224 133.793 35.096C134.443 34.9467 134.934 35.0693 135.265 35.464C135.595 35.848 135.761 36.28 135.761 36.76C135.761 37.1227 135.67 37.4533 135.489 37.752C135.307 38.0507 135.03 38.232 134.657 38.296C133.345 38.52 131.889 38.7387 130.289 38.952C128.689 39.1547 127.126 39.2987 125.601 39.384C124.694 39.4267 123.995 39.24 123.505 38.824C123.014 38.408 122.806 37.72 122.881 36.76ZM128.641 37.08L130.72 37.016C130.785 37.3467 130.801 37.64 130.769 37.896C130.747 38.1413 130.667 38.344 130.529 38.504C130.39 38.6533 130.187 38.744 129.921 38.776C129.622 38.8187 129.382 38.7707 129.201 38.632C129.019 38.4933 128.886 38.2907 128.801 38.024C128.715 37.7467 128.662 37.432 128.641 37.08ZM132.289 37.272C132.278 37.176 132.262 37.08 132.241 36.984C132.23 36.888 132.225 36.792 132.225 36.696C132.225 36.4827 132.289 36.296 132.417 36.136C132.555 35.976 132.801 35.864 133.153 35.8C133.473 35.736 133.734 35.736 133.937 35.8C134.139 35.8533 134.262 36.0027 134.305 36.248C134.326 36.3227 134.342 36.408 134.353 36.504C134.374 36.5893 134.39 36.6747 134.401 36.76C134.454 37.0267 134.411 37.2613 134.273 37.464C134.134 37.656 133.889 37.7947 133.537 37.88C133.142 37.9547 132.849 37.9547 132.657 37.88C132.465 37.7947 132.342 37.592 132.289 37.272ZM129.536 27.864C128.982 27.864 128.571 27.7467 128.305 27.512C128.038 27.2773 127.905 26.84 127.905 26.2C127.905 25.8907 128.038 25.6027 128.305 25.336C128.571 25.0587 128.897 24.92 129.281 24.92C129.825 24.92 130.219 25.0427 130.465 25.288C130.721 25.5333 130.849 25.912 130.849 26.424C130.849 26.9147 130.726 27.2773 130.481 27.512C130.235 27.7467 129.921 27.864 129.536 27.864ZM130.113 18.104C130.113 17.976 130.171 17.8587 130.289 17.752C130.417 17.6347 130.593 17.5707 130.817 17.56C130.998 17.5387 131.169 17.56 131.329 17.624C131.499 17.688 131.585 17.7947 131.585 17.944C131.585 17.9867 131.585 18.0507 131.585 18.136C131.585 18.2213 131.585 18.296 131.585 18.36C131.585 18.5307 131.515 18.6693 131.377 18.776C131.238 18.8827 131.073 18.9467 130.881 18.968C130.71 18.9787 130.545 18.952 130.385 18.888C130.225 18.8133 130.134 18.68 130.113 18.488C130.113 18.424 130.113 18.36 130.113 18.296C130.113 18.232 130.113 18.168 130.113 18.104ZM126.177 20.184L126.016 21.464C125.75 21.432 125.553 21.3573 125.424 21.24C125.297 21.1227 125.238 20.952 125.249 20.728C125.27 20.472 125.371 20.3173 125.553 20.264C125.734 20.2107 125.942 20.184 126.177 20.184ZM138.907 36.568C138.896 36.3653 138.886 36.1413 138.875 35.896C138.875 35.64 138.875 35.3787 138.875 35.112C138.886 34.8453 138.896 34.5947 138.907 34.36C140.635 34.4987 141.798 34.472 142.395 34.28C142.992 34.0773 143.291 33.752 143.291 33.304C143.291 32.728 142.998 32.376 142.411 32.248C141.824 32.1093 140.688 32.0987 139.003 32.216C139.024 31.8427 139.04 31.4747 139.051 31.112C139.072 30.7387 139.099 30.3707 139.131 30.008C139.878 30.0827 140.491 30.1093 140.971 30.088C141.451 30.056 141.808 29.9547 142.043 29.784C142.278 29.6027 142.395 29.3253 142.395 28.952C142.395 28.4827 142.16 28.168 141.691 28.008C141.222 27.8373 140.4 27.736 139.227 27.704C139.28 26.52 139.355 25.256 139.451 23.912C139.558 22.568 139.675 21.3147 139.803 20.152C139.963 18.712 140.374 17.6773 141.035 17.048C141.696 16.408 142.555 16.088 143.611 16.088C144.571 16.088 145.318 16.3387 145.851 16.84C146.395 17.3413 146.864 18.1467 147.259 19.256C147.611 20.2267 147.979 21.2987 148.363 22.472C148.747 23.6347 149.136 24.8453 149.531 26.104C149.936 27.3627 150.336 28.6107 150.731 29.848C151.136 31.0747 151.536 32.2373 151.931 33.336C152.07 33.7307 152.272 33.9707 152.539 34.056C152.806 34.1413 153.046 34.0933 153.259 33.912C153.472 33.72 153.574 33.4107 153.563 32.984C153.542 31.4587 153.51 29.7787 153.467 27.944C153.424 26.0987 153.387 24.2213 153.355 22.312C153.334 20.392 153.328 18.552 153.339 16.792C153.339 16.12 153.467 15.6187 153.723 15.288C153.99 14.9467 154.395 14.776 154.939 14.776C155.451 14.776 155.83 14.9573 156.075 15.32C156.32 15.6827 156.443 16.2267 156.443 16.952C156.432 18.712 156.395 20.5413 156.331 22.44C156.278 24.3387 156.198 26.2693 156.091 28.232C155.995 30.184 155.878 32.1307 155.739 34.072C155.664 35.192 155.355 35.976 154.811 36.424C154.278 36.8613 153.616 37.08 152.827 37.08C152.048 37.08 151.414 36.8667 150.923 36.44C150.443 36.0027 150.043 35.384 149.723 34.584C149.126 33.112 148.544 31.6027 147.979 30.056C147.424 28.5093 146.87 26.9787 146.315 25.464C145.771 23.9493 145.222 22.4987 144.667 21.112C144.592 20.92 144.502 20.7813 144.395 20.696C144.299 20.6107 144.176 20.568 144.027 20.568C143.803 20.568 143.622 20.664 143.483 20.856C143.355 21.0373 143.323 21.304 143.387 21.656C143.622 23.1173 143.888 24.6053 144.187 26.12C144.486 27.6347 144.784 29.16 145.083 30.696C145.392 32.232 145.67 33.7627 145.915 35.288C146.139 36.728 145.936 37.8427 145.307 38.632C144.688 39.4107 143.707 39.8 142.363 39.8C141.168 39.8 140.299 39.5067 139.755 38.92C139.222 38.3227 138.939 37.5387 138.907 36.568ZM153.563 18.68C153.968 18.6907 154.374 18.712 154.779 18.744C155.195 18.7653 155.6 18.7867 155.995 18.808C156.87 18.8507 157.504 18.9147 157.899 19C158.304 19.0853 158.56 19.2027 158.667 19.352C158.784 19.5013 158.843 19.6933 158.843 19.928C158.843 20.1627 158.779 20.36 158.651 20.52C158.534 20.6693 158.267 20.7867 157.851 20.872C157.435 20.9467 156.795 20.984 155.931 20.984C155.515 20.984 155.104 20.984 154.699 20.984C154.294 20.984 153.883 20.984 153.467 20.984C152.635 20.984 152 20.936 151.563 20.84C151.126 20.7333 150.827 20.584 150.667 20.392C150.507 20.2 150.427 19.9707 150.427 19.704C150.427 19.448 150.507 19.24 150.667 19.08C150.838 18.9093 151.147 18.792 151.595 18.728C152.054 18.6533 152.71 18.6373 153.563 18.68ZM153.435 23.032C153.851 23.032 154.272 23.0267 154.699 23.016C155.126 23.0053 155.547 23 155.963 23C156.955 22.9787 157.584 23.0533 157.851 23.224C158.128 23.384 158.267 23.6507 158.267 24.024C158.267 24.472 158.134 24.792 157.867 24.984C157.6 25.176 156.987 25.272 156.027 25.272C155.643 25.272 155.254 25.272 154.859 25.272C154.464 25.272 154.075 25.272 153.691 25.272C152.528 25.272 151.744 25.1973 151.339 25.048C150.944 24.8987 150.747 24.6 150.747 24.152C150.747 23.8 150.918 23.528 151.259 23.336C151.611 23.144 152.336 23.0427 153.435 23.032ZM154.587 26.04C154.619 26.04 154.651 26.04 154.683 26.04C154.715 26.04 154.747 26.04 154.779 26.04C154.95 26.04 155.088 26.0933 155.195 26.2C155.302 26.3067 155.382 26.4453 155.435 26.616C155.488 26.776 155.515 26.9467 155.515 27.128C155.515 27.3093 155.483 27.4853 155.419 27.656C155.355 27.8267 155.264 27.9707 155.147 28.088C155.03 28.1947 154.886 28.248 154.715 28.248C154.672 28.248 154.63 28.248 154.587 28.248C154.555 28.248 154.512 28.248 154.459 28.248C154.224 28.248 154.048 28.1413 153.931 27.928C153.814 27.7147 153.755 27.48 153.755 27.224C153.755 26.936 153.824 26.6693 153.963 26.424C154.112 26.168 154.32 26.04 154.587 26.04ZM141.851 35.096C141.979 35.096 142.112 35.096 142.251 35.096C142.39 35.096 142.523 35.096 142.651 35.096C142.939 35.096 143.152 35.208 143.291 35.432C143.44 35.656 143.515 35.9067 143.515 36.184C143.515 36.504 143.43 36.7867 143.259 37.032C143.088 37.2773 142.832 37.4107 142.491 37.432C142.352 37.432 142.214 37.432 142.075 37.432C141.947 37.432 141.808 37.432 141.659 37.432C141.339 37.432 141.099 37.3093 140.939 37.064C140.779 36.808 140.699 36.536 140.699 36.248C140.699 35.9067 140.784 35.6293 140.955 35.416C141.136 35.2027 141.435 35.096 141.851 35.096ZM142.971 37.112C142.64 37.112 142.384 37.0213 142.203 36.84C142.032 36.6587 141.947 36.3867 141.947 36.024C141.947 35.7467 142.043 35.5227 142.235 35.352C142.438 35.1813 142.704 35.096 143.035 35.096C143.312 35.096 143.536 35.1813 143.707 35.352C143.878 35.512 143.963 35.7467 143.963 36.056C143.963 36.408 143.867 36.6747 143.675 36.856C143.494 37.0267 143.259 37.112 142.971 37.112ZM161.457 36.472C161.446 36.2587 161.43 36.0507 161.409 35.848C161.398 35.6347 161.382 35.4267 161.361 35.224C161.35 35.096 161.339 34.968 161.329 34.84C161.318 34.712 161.307 34.584 161.297 34.456C161.286 34.328 161.275 34.2 161.265 34.072C161.265 33.9547 161.259 33.8373 161.249 33.72C161.249 33.6027 161.243 33.4907 161.233 33.384C161.222 33.2667 161.211 33.1547 161.201 33.048C161.169 32.696 161.142 32.344 161.121 31.992C161.099 31.64 161.073 31.288 161.041 30.936C161.041 30.776 161.035 30.616 161.025 30.456C161.014 30.296 160.998 30.136 160.977 29.976C160.966 29.8587 160.955 29.7467 160.945 29.64C160.945 29.5227 160.939 29.4107 160.929 29.304C160.929 29.1867 160.923 29.0693 160.913 28.952C160.817 27.416 160.721 25.8747 160.625 24.328C160.539 22.7813 160.454 21.24 160.369 19.704C160.337 19.0427 160.443 18.4667 160.689 17.976C160.934 17.4747 161.382 17.0907 162.033 16.824C162.694 16.5467 163.622 16.408 164.817 16.408C167.323 16.408 169.43 16.8293 171.137 17.672C172.854 18.504 174.15 19.7947 175.025 21.544C175.899 23.2827 176.337 25.5173 176.337 28.248C176.337 30.4773 175.921 32.424 175.089 34.088C174.267 35.7413 173.067 37.0267 171.489 37.944C169.91 38.8613 167.985 39.32 165.713 39.32C164.731 39.32 163.937 39.2507 163.329 39.112C162.731 38.984 162.283 38.7173 161.985 38.312C161.697 37.9067 161.521 37.2933 161.457 36.472ZM163.825 32.6C163.857 33.208 164.011 33.624 164.289 33.848C164.566 34.0613 164.966 34.168 165.489 34.168C166.406 34.168 167.249 33.8853 168.017 33.32C168.795 32.744 169.467 31.9973 170.033 31.08C170.609 30.152 171.057 29.1493 171.377 28.072C171.697 26.984 171.857 25.9333 171.857 24.92C171.857 23.9707 171.707 23.1227 171.409 22.376C171.11 21.6187 170.689 20.9733 170.145 20.44C169.601 19.896 168.961 19.4853 168.225 19.208C167.499 18.92 166.705 18.776 165.841 18.776C164.902 18.776 164.262 18.9893 163.921 19.416C163.59 19.832 163.43 20.4827 163.441 21.368C163.473 23.2347 163.521 25.1067 163.585 26.984C163.649 28.8507 163.729 30.7227 163.825 32.6ZM172.177 34.776C172.625 34.776 172.966 34.6533 173.201 34.408C173.435 34.152 173.553 33.8587 173.553 33.528C173.553 33.0587 173.414 32.68 173.137 32.392C172.87 32.104 172.518 31.96 172.081 31.96C171.686 31.96 171.361 32.0987 171.105 32.376C170.859 32.6427 170.737 32.9947 170.737 33.432C170.737 33.848 170.87 34.1787 171.137 34.424C171.403 34.6587 171.75 34.776 172.177 34.776ZM168.849 37.24C169.254 37.24 169.558 37.128 169.761 36.904C169.963 36.68 170.065 36.4187 170.065 36.12C170.065 35.7467 169.963 35.4587 169.761 35.256C169.569 35.0427 169.35 34.936 169.105 34.936C168.625 34.936 168.278 35.0373 168.065 35.24C167.862 35.4427 167.761 35.6827 167.761 35.96C167.761 36.3547 167.862 36.6693 168.065 36.904C168.267 37.128 168.529 37.24 168.849 37.24ZM173.937 30.744C174.278 30.744 174.534 30.6427 174.705 30.44C174.875 30.2373 174.961 29.944 174.961 29.56C174.961 29.2187 174.87 28.9467 174.689 28.744C174.507 28.5413 174.182 28.44 173.713 28.44C173.425 28.44 173.174 28.5307 172.961 28.712C172.758 28.8933 172.657 29.1547 172.657 29.496C172.657 29.944 172.753 30.264 172.945 30.456C173.147 30.648 173.478 30.744 173.937 30.744ZM159.953 20.92C160.721 20.9307 161.547 20.9627 162.433 21.016C163.318 21.0693 164.017 21.1227 164.529 21.176C165.382 21.24 165.953 21.352 166.241 21.512C166.529 21.672 166.673 21.9227 166.673 22.264C166.673 22.6267 166.518 22.8827 166.209 23.032C165.899 23.1707 165.393 23.256 164.689 23.288C164.251 23.2987 163.745 23.304 163.169 23.304C162.593 23.304 162.022 23.2987 161.457 23.288C160.891 23.2773 160.401 23.2667 159.985 23.256C159.249 23.224 158.705 23.1173 158.353 22.936C158.011 22.7547 157.841 22.4667 157.841 22.072C157.841 21.6347 158.033 21.3307 158.417 21.16C158.801 20.9787 159.313 20.8987 159.953 20.92ZM159.665 25.496C160.39 25.4 161.211 25.2987 162.129 25.192C163.057 25.0747 163.846 24.9947 164.497 24.952C165.286 24.888 165.857 24.9413 166.209 25.112C166.561 25.272 166.737 25.56 166.737 25.976C166.737 26.3707 166.571 26.6693 166.241 26.872C165.921 27.064 165.382 27.192 164.625 27.256C164.049 27.32 163.297 27.384 162.369 27.448C161.451 27.5013 160.614 27.544 159.857 27.576C159.185 27.608 158.705 27.544 158.417 27.384C158.139 27.2133 158.001 26.968 158.001 26.648C158.001 26.328 158.134 26.0773 158.401 25.896C158.667 25.704 159.089 25.5707 159.665 25.496ZM165.393 36.92C165.489 36.984 165.579 37.064 165.665 37.16C165.761 37.256 165.83 37.336 165.873 37.4C165.947 37.496 166.001 37.5867 166.033 37.672C166.065 37.7573 166.081 37.8427 166.081 37.928C166.081 38.1627 165.985 38.3653 165.793 38.536C165.611 38.696 165.398 38.7867 165.153 38.808C164.907 38.8293 164.689 38.7547 164.497 38.584C164.433 38.5307 164.369 38.4667 164.305 38.392C164.251 38.3173 164.198 38.2427 164.145 38.168C164.081 38.0827 164.033 37.992 164.001 37.896C163.979 37.8 163.969 37.7147 163.969 37.64C163.969 37.288 164.129 37.0267 164.449 36.856C164.769 36.6747 165.083 36.696 165.393 36.92ZM178.346 22.872C177.962 22.36 177.684 21.8533 177.514 21.352C177.343 20.84 177.258 20.36 177.258 19.912C177.258 19.1227 177.423 18.4507 177.754 17.896C178.084 17.3413 178.527 16.92 179.082 16.632C179.647 16.3333 180.266 16.184 180.938 16.184C181.759 16.184 182.431 16.3867 182.954 16.792C183.487 17.1867 183.972 17.784 184.41 18.584C184.836 19.3627 185.247 20.1893 185.642 21.064C186.036 21.9387 186.452 22.7707 186.89 23.56C187.018 23.784 187.146 23.96 187.274 24.088C187.412 24.2053 187.562 24.264 187.722 24.264C187.903 24.264 188.084 24.2053 188.266 24.088C188.458 23.9707 188.623 23.784 188.762 23.528C189.316 22.5787 189.871 21.56 190.426 20.472C190.98 19.3733 191.524 18.3707 192.058 17.464C192.292 17.0693 192.538 16.76 192.794 16.536C193.06 16.3013 193.37 16.184 193.722 16.184C193.946 16.184 194.138 16.232 194.298 16.328C194.458 16.424 194.58 16.5627 194.666 16.744C194.751 16.9147 194.794 17.1227 194.794 17.368C194.794 17.56 194.762 17.7733 194.698 18.008C194.644 18.232 194.548 18.4667 194.41 18.712C194.058 19.3627 193.727 19.96 193.418 20.504C193.108 21.0373 192.81 21.5493 192.522 22.04C192.447 22.1573 192.378 22.2747 192.314 22.392C192.25 22.5093 192.18 22.6267 192.106 22.744C192.052 22.8293 191.999 22.92 191.946 23.016C191.892 23.1013 191.839 23.1867 191.786 23.272C191.732 23.3573 191.679 23.448 191.626 23.544C191.519 23.7147 191.412 23.8853 191.306 24.056C191.21 24.2267 191.108 24.4027 191.002 24.584C190.938 24.6907 190.874 24.8027 190.81 24.92C190.746 25.0267 190.676 25.1387 190.602 25.256C190.516 25.4053 190.426 25.56 190.33 25.72C190.234 25.88 190.138 26.0453 190.042 26.216C189.871 26.4933 189.695 26.7867 189.514 27.096C189.343 27.4053 189.167 27.7307 188.986 28.072C188.794 28.424 188.612 28.792 188.442 29.176C188.282 29.5493 188.154 29.944 188.058 30.36C187.972 30.776 187.94 31.224 187.962 31.704C188.026 32.7707 188.122 33.7947 188.25 34.776C188.388 35.7573 188.495 36.7813 188.57 37.848C188.623 38.6267 188.506 39.2347 188.218 39.672C187.94 40.12 187.407 40.344 186.618 40.344C185.914 40.344 185.402 40.1147 185.082 39.656C184.772 39.208 184.623 38.5947 184.634 37.816C184.655 37.0907 184.714 36.344 184.81 35.576C184.906 34.808 184.948 34.0667 184.938 33.352C184.927 32.8187 184.842 32.3013 184.682 31.8C184.532 31.2987 184.223 30.7013 183.754 30.008C182.911 28.7813 182.02 27.5813 181.082 26.408C180.143 25.2347 179.231 24.056 178.346 22.872ZM181.161 21.672C181.642 21.672 181.999 21.5333 182.234 21.256C182.479 20.9787 182.602 20.616 182.602 20.168C182.602 19.7307 182.479 19.3947 182.234 19.16C181.988 18.9147 181.567 18.792 180.97 18.792C180.554 18.792 180.239 18.9413 180.026 19.24C179.823 19.5387 179.722 19.912 179.722 20.36C179.722 20.7547 179.85 21.0747 180.106 21.32C180.362 21.5547 180.714 21.672 181.161 21.672ZM183.434 25.16C183.786 25.16 184.068 25.0533 184.282 24.84C184.506 24.616 184.618 24.3387 184.618 24.008C184.618 23.5067 184.49 23.128 184.234 22.872C183.988 22.6053 183.647 22.472 183.21 22.472C182.815 22.472 182.5 22.5893 182.266 22.824C182.042 23.048 181.93 23.432 181.93 23.976C181.93 24.328 182.063 24.616 182.33 24.84C182.607 25.0533 182.975 25.16 183.434 25.16ZM185.786 28.264C186.106 28.264 186.378 28.168 186.602 27.976C186.826 27.784 186.938 27.5387 186.938 27.24C186.938 26.8027 186.831 26.472 186.618 26.248C186.404 26.0133 186.17 25.896 185.914 25.896C185.466 25.896 185.13 26.008 184.906 26.232C184.682 26.456 184.57 26.7387 184.57 27.08C184.57 27.4747 184.676 27.7733 184.89 27.976C185.103 28.168 185.402 28.264 185.786 28.264ZM194.074 21.272C193.391 20.9413 192.74 20.6053 192.122 20.264C191.514 19.9227 190.932 19.5653 190.378 19.192C189.727 18.7547 189.263 18.344 188.986 17.96C188.708 17.576 188.687 17.1867 188.922 16.792C189.167 16.4187 189.53 16.2907 190.01 16.408C190.5 16.5147 191.028 16.7387 191.594 17.08C192.159 17.4213 192.74 17.7787 193.338 18.152C193.935 18.5253 194.554 18.936 195.194 19.384C195.567 19.64 195.823 19.9067 195.962 20.184C196.1 20.4613 196.063 20.7707 195.85 21.112C195.658 21.4427 195.407 21.5973 195.098 21.576C194.799 21.5547 194.458 21.4533 194.074 21.272ZM191.69 24.632C191.231 24.3547 190.772 24.072 190.314 23.784C189.855 23.496 189.407 23.2027 188.97 22.904C188.362 22.488 187.956 22.152 187.754 21.896C187.551 21.64 187.53 21.3467 187.69 21.016C187.871 20.6427 188.159 20.4827 188.554 20.536C188.948 20.5787 189.418 20.7387 189.962 21.016C190.506 21.2827 191.05 21.56 191.594 21.848C192.138 22.136 192.682 22.4347 193.226 22.744C193.716 23.0107 194.074 23.3307 194.298 23.704C194.522 24.0667 194.527 24.4347 194.314 24.808C194.09 25.2027 193.727 25.3467 193.226 25.24C192.724 25.1333 192.212 24.9307 191.69 24.632ZM179.049 19.16C179.007 19.192 178.964 19.224 178.922 19.256C178.89 19.288 178.847 19.32 178.794 19.352C178.666 19.448 178.538 19.464 178.41 19.4C178.292 19.3253 178.207 19.224 178.154 19.096C178.111 19 178.09 18.9093 178.09 18.824C178.1 18.728 178.154 18.6587 178.25 18.616C178.282 18.5947 178.319 18.5733 178.362 18.552C178.404 18.52 178.442 18.4987 178.474 18.488C178.57 18.4347 178.66 18.424 178.746 18.456C178.842 18.4773 178.922 18.5307 178.986 18.616C179.071 18.6907 179.124 18.7867 179.146 18.904C179.167 19.0107 179.135 19.096 179.049 19.16ZM181.514 17.56C181.482 17.5707 181.444 17.5867 181.402 17.608C181.359 17.6187 181.322 17.6347 181.29 17.656C181.162 17.72 181.039 17.7093 180.922 17.624C180.804 17.5387 180.714 17.4427 180.65 17.336C180.586 17.208 180.559 17.08 180.57 16.952C180.58 16.824 180.65 16.7387 180.778 16.696C180.831 16.6747 180.879 16.6533 180.922 16.632C180.975 16.6 181.023 16.5787 181.066 16.568C181.194 16.504 181.316 16.5147 181.434 16.6C181.551 16.6853 181.642 16.792 181.706 16.92C181.759 17.0267 181.775 17.144 181.754 17.272C181.743 17.4 181.663 17.496 181.514 17.56Z" fill="black"/>
<path d="M87.808 71.744C87.264 71.744 86.752 71.6747 86.272 71.536C85.792 71.3867 85.408 71.168 85.12 70.88C84.9493 70.7093 84.8053 70.5227 84.688 70.32C84.5813 70.1067 84.496 69.8827 84.432 69.648C84.3787 69.4027 84.336 69.152 84.304 68.896C84.2827 68.64 84.2773 68.384 84.288 68.128C85.888 68.5227 87.0667 68.688 87.824 68.624C88.5813 68.5493 88.96 68.224 88.96 67.648C88.96 67.1787 88.64 66.8587 88 66.688C87.36 66.5173 86.176 66.3787 84.448 66.272C84.4693 66.016 84.4907 65.7173 84.512 65.376C84.544 65.0347 84.576 64.736 84.608 64.48C85.6107 64.512 86.4053 64.5067 86.992 64.464C87.5787 64.4107 87.9947 64.2933 88.24 64.112C88.496 63.92 88.6187 63.6373 88.608 63.264C88.5973 62.9547 88.4587 62.7307 88.192 62.592C87.9253 62.4427 87.5147 62.3573 86.96 62.336C86.416 62.3147 85.7173 62.336 84.864 62.4C85.0773 60.896 85.2747 59.4987 85.456 58.208C85.6373 56.9067 85.824 55.648 86.016 54.432C86.112 53.8773 86.032 53.5147 85.776 53.344C85.52 53.1733 85.1627 53.1093 84.704 53.152C84.2453 53.1947 83.744 53.2693 83.2 53.376C82.6667 53.4827 82.1547 53.5413 81.664 53.552C81.184 53.5627 80.784 53.4507 80.464 53.216C80.1547 52.9707 80 52.5227 80 51.872C80 51.52 80.0853 51.232 80.256 51.008C80.4373 50.784 80.6987 50.6133 81.04 50.496C81.392 50.368 81.8133 50.272 82.304 50.208C82.4213 50.1867 82.5493 50.1707 82.688 50.16C82.8267 50.1387 82.9707 50.1227 83.12 50.112C83.3333 50.0907 83.52 50.0693 83.68 50.048C83.8507 50.016 84.0053 49.9947 84.144 49.984C84.5387 49.9307 84.912 49.8827 85.264 49.84C85.6267 49.7973 86.0213 49.7493 86.448 49.696C86.5227 49.6853 86.5973 49.6747 86.672 49.664C86.7573 49.6533 86.8427 49.6427 86.928 49.632C87.024 49.6213 87.1147 49.6107 87.2 49.6C87.296 49.5893 87.3867 49.5787 87.472 49.568C87.568 49.5573 87.6533 49.5467 87.728 49.536C87.8133 49.5253 87.8827 49.52 87.936 49.52C89.1093 49.3813 90.1387 49.2747 91.024 49.2C91.92 49.1147 92.6613 49.088 93.248 49.12C93.8453 49.152 94.2933 49.2587 94.592 49.44C94.8907 49.6213 95.04 49.9093 95.04 50.304C95.04 50.6987 94.8693 51.008 94.528 51.232C94.1973 51.4453 93.7653 51.6107 93.232 51.728C92.7093 51.8453 92.16 51.9467 91.584 52.032C91.008 52.1173 90.4747 52.2293 89.984 52.368C89.4933 52.496 89.1147 52.6827 88.848 52.928C88.5813 53.1733 88.5013 53.5147 88.608 53.952C89.088 55.9147 89.552 57.6693 90 59.216C90.448 60.7627 90.8373 62.1387 91.168 63.344C91.4987 64.5387 91.728 65.5947 91.856 66.512C91.9947 67.4187 91.984 68.2187 91.824 68.912C91.6747 69.5947 91.3387 70.1973 90.816 70.72C90.464 71.072 90.016 71.3333 89.472 71.504C88.9387 71.664 88.384 71.744 87.808 71.744ZM87.2 52.032C86.944 52.032 86.7413 51.968 86.592 51.84C86.4427 51.712 86.368 51.5307 86.368 51.296C86.368 51.0507 86.4373 50.8587 86.576 50.72C86.7253 50.5707 86.912 50.496 87.136 50.496C87.3813 50.496 87.568 50.5653 87.696 50.704C87.8347 50.832 87.904 50.9867 87.904 51.168C87.904 51.4347 87.8347 51.648 87.696 51.808C87.5573 51.9573 87.392 52.032 87.2 52.032ZM88.8 71.136L88.992 68.704C89.344 68.7467 89.632 68.8053 89.856 68.88C90.0907 68.9547 90.2613 69.0667 90.368 69.216C90.4853 69.3547 90.544 69.5573 90.544 69.824C90.544 70.24 90.48 70.544 90.352 70.736C90.224 70.928 90.032 71.0507 89.776 71.104C89.52 71.1467 89.1947 71.1573 88.8 71.136ZM89.024 58.112L88.448 60.224C88.1387 60.1387 87.888 60.0533 87.696 59.968C87.504 59.8827 87.3653 59.776 87.28 59.648C87.1947 59.52 87.152 59.3653 87.152 59.184C87.152 58.7467 87.2267 58.4427 87.376 58.272C87.5253 58.1013 87.7387 58.016 88.016 58.016C88.2933 58.0053 88.6293 58.0373 89.024 58.112ZM96.6388 69.92C96.7241 67.6267 96.8148 65.344 96.9108 63.072C97.0174 60.8 97.1401 58.5707 97.2788 56.384C97.2894 56.224 97.2948 56.064 97.2948 55.904C97.3054 55.744 97.3161 55.584 97.3268 55.424C97.3374 55.328 97.3428 55.232 97.3428 55.136C97.3534 55.0293 97.3588 54.9227 97.3588 54.816C97.3694 54.7093 97.3748 54.6027 97.3748 54.496C97.3854 54.2827 97.3961 54.0693 97.4068 53.856C97.4281 53.632 97.4441 53.4187 97.4548 53.216C97.4761 53.024 97.4921 52.8373 97.5028 52.656C97.5134 52.4747 97.5241 52.288 97.5348 52.096C97.5454 51.968 97.5508 51.856 97.5508 51.76C97.5614 51.6533 97.5721 51.552 97.5828 51.456C97.5934 51.3493 97.6041 51.2427 97.6148 51.136C97.6254 51.0187 97.6361 50.912 97.6468 50.816C97.6574 50.7093 97.6681 50.6027 97.6788 50.496C97.7534 49.984 97.8921 49.5787 98.0948 49.28C98.3081 48.9813 98.6548 48.832 99.1348 48.832C99.6681 48.832 100.041 49.024 100.255 49.408C100.479 49.7813 100.575 50.2507 100.543 50.816C100.468 52.2027 100.361 53.5413 100.223 54.832C100.095 56.112 99.9988 57.4187 99.9348 58.752C99.9241 59.008 99.9881 59.2267 100.127 59.408C100.265 59.5787 100.5 59.648 100.831 59.616C101.908 59.52 103.028 59.3867 104.191 59.216C105.353 59.0453 106.463 58.8587 107.519 58.656C107.892 58.5707 108.148 58.4587 108.287 58.32C108.425 58.1813 108.5 57.984 108.511 57.728C108.575 56.992 108.617 56.2453 108.639 55.488C108.66 54.72 108.692 53.9307 108.735 53.12C108.788 52.512 108.953 52.016 109.231 51.632C109.519 51.2373 109.951 51.04 110.527 51.04C111.124 51.04 111.561 51.2587 111.839 51.696C112.127 52.1227 112.255 52.704 112.223 53.44C112.127 56.4907 112.009 59.5893 111.871 62.736C111.732 65.8827 111.572 68.864 111.391 71.68C111.359 72.288 111.215 72.7733 110.959 73.136C110.703 73.5093 110.26 73.696 109.631 73.696C108.959 73.696 108.5 73.472 108.255 73.024C108.02 72.576 107.967 72.0107 108.095 71.328C108.244 70.5707 108.42 69.824 108.623 69.088C108.825 68.3413 108.991 67.5947 109.119 66.848C109.183 66.5067 109.172 66.2613 109.087 66.112C109.001 65.9627 108.82 65.8667 108.543 65.824C108.383 65.792 108.223 65.7653 108.063 65.744C107.903 65.7227 107.743 65.7067 107.583 65.696C107.689 65.0027 107.764 64.352 107.807 63.744C107.86 63.136 107.828 62.64 107.711 62.256C107.593 61.872 107.337 61.6747 106.943 61.664C106.687 61.6533 106.457 61.7333 106.255 61.904C106.063 62.0747 105.892 62.432 105.743 62.976C105.604 63.5093 105.492 64.32 105.407 65.408C105.076 65.3547 104.735 65.312 104.383 65.28C104.031 65.2373 103.679 65.1947 103.327 65.152C103.263 64.2027 103.177 63.4667 103.071 62.944C102.975 62.4107 102.836 62.0373 102.655 61.824C102.484 61.6107 102.26 61.504 101.983 61.504C101.503 61.504 101.199 61.7707 101.071 62.304C100.953 62.8373 101.023 63.7227 101.279 64.96C101.119 64.9387 100.959 64.928 100.799 64.928C100.639 64.9173 100.479 64.9067 100.319 64.896C100.052 64.8747 99.8601 64.928 99.7428 65.056C99.6361 65.184 99.5828 65.3867 99.5828 65.664C99.6041 66.368 99.6468 67.072 99.7108 67.776C99.7748 68.48 99.8068 69.1947 99.8068 69.92C99.8068 70.3467 99.6788 70.736 99.4227 71.088C99.1668 71.44 98.7401 71.616 98.1428 71.616C97.5561 71.616 97.1561 71.4453 96.9428 71.104C96.7294 70.7627 96.6281 70.368 96.6388 69.92ZM104.063 56.768C103.54 56.768 103.129 56.5867 102.831 56.224C102.543 55.8613 102.399 55.3707 102.399 54.752C102.399 54.272 102.564 53.8933 102.895 53.616C103.236 53.328 103.711 53.184 104.319 53.184C104.884 53.184 105.3 53.3493 105.567 53.68C105.844 54.0107 105.983 54.4747 105.983 55.072C105.983 55.5627 105.828 55.968 105.519 56.288C105.209 56.608 104.724 56.768 104.063 56.768ZM110.463 54.368C110.719 54.368 110.911 54.4747 111.039 54.688C111.167 54.8907 111.231 55.2 111.231 55.616C111.231 56 111.156 56.2987 111.007 56.512C110.868 56.7253 110.655 56.832 110.367 56.832C110.26 56.832 110.153 56.832 110.047 56.832C109.94 56.832 109.823 56.832 109.695 56.832C109.439 56.832 109.257 56.72 109.151 56.496C109.044 56.2613 108.991 55.9787 108.991 55.648C108.991 55.2107 109.065 54.8907 109.215 54.688C109.364 54.4747 109.599 54.368 109.919 54.368C110.015 54.368 110.105 54.368 110.191 54.368C110.276 54.368 110.367 54.368 110.463 54.368ZM98.4948 71.232C97.9188 71.232 97.5134 71.1093 97.2788 70.864C97.0441 70.6187 96.9268 70.336 96.9268 70.016C96.9268 69.5467 97.0388 69.1787 97.2628 68.912C97.4868 68.6453 97.8121 68.512 98.2388 68.512C98.6761 68.512 99.0174 68.6507 99.2628 68.928C99.5188 69.1947 99.6468 69.5787 99.6468 70.08C99.6468 70.432 99.5401 70.7147 99.3268 70.928C99.1134 71.1307 98.8361 71.232 98.4948 71.232ZM99.0388 51.008C99.2521 51.008 99.4068 51.104 99.5028 51.296C99.5988 51.4773 99.6468 51.68 99.6468 51.904C99.6468 52.1387 99.5934 52.3573 99.4868 52.56C99.3908 52.7627 99.2308 52.8747 99.0068 52.896C98.9321 52.896 98.8521 52.9013 98.7668 52.912C98.6921 52.9227 98.6121 52.928 98.5268 52.928C98.3241 52.9387 98.1694 52.8533 98.0628 52.672C97.9668 52.48 97.9188 52.2667 97.9188 52.032C97.9188 51.7867 97.9774 51.5573 98.0948 51.344C98.2121 51.12 98.3881 51.008 98.6228 51.008C98.6868 51.008 98.7561 51.008 98.8307 51.008C98.9054 51.008 98.9748 51.008 99.0388 51.008ZM116.524 69.952C116.396 68.384 116.278 66.4907 116.172 64.272C116.065 62.0427 116.012 59.616 116.012 56.992C116.012 56.256 116.065 55.5733 116.172 54.944C116.278 54.304 116.438 53.7173 116.652 53.184C116.705 53.056 116.758 52.928 116.812 52.8C116.876 52.672 116.94 52.5493 117.004 52.432C117.068 52.3253 117.126 52.224 117.18 52.128C117.244 52.032 117.313 51.936 117.388 51.84C117.484 51.6907 117.59 51.552 117.708 51.424C117.825 51.296 117.942 51.1733 118.06 51.056C118.156 50.96 118.257 50.864 118.364 50.768C118.47 50.672 118.582 50.5867 118.7 50.512C118.817 50.4267 118.94 50.3467 119.068 50.272C119.196 50.1867 119.329 50.1067 119.468 50.032C120.097 49.7013 120.796 49.456 121.564 49.296C122.342 49.136 123.201 49.056 124.14 49.056C125.281 49.056 126.332 49.2 127.292 49.488C128.262 49.7653 129.1 50.192 129.804 50.768C130.518 51.344 131.068 52.0747 131.451 52.96C131.846 53.8453 132.044 54.8907 132.044 56.096C132.044 57.472 131.756 58.608 131.18 59.504C130.614 60.4 129.862 61.072 128.924 61.52C127.985 61.9573 126.966 62.176 125.868 62.176C124.758 62.176 123.809 61.9947 123.02 61.632C122.23 61.2587 121.628 60.7307 121.212 60.048C120.796 59.3547 120.588 58.528 120.588 57.568C120.588 56.256 120.94 55.2533 121.644 54.56C122.348 53.856 123.265 53.504 124.396 53.504C125.505 53.504 126.31 53.792 126.812 54.368C127.313 54.944 127.564 55.5947 127.564 56.32C127.564 56.8107 127.457 57.1573 127.244 57.36C127.041 57.5627 126.764 57.664 126.412 57.664C126.06 57.664 125.809 57.5627 125.66 57.36C125.51 57.1467 125.388 56.9067 125.292 56.64C125.206 56.3733 125.084 56.1387 124.924 55.936C124.774 55.7227 124.513 55.616 124.14 55.616C123.724 55.616 123.414 55.7653 123.212 56.064C123.02 56.3627 122.924 56.7467 122.924 57.216C122.924 58.1227 123.212 58.8053 123.788 59.264C124.374 59.712 125.089 59.936 125.932 59.936C127.02 59.936 127.905 59.632 128.588 59.024C129.27 58.416 129.612 57.472 129.612 56.192C129.612 54.5707 129.1 53.36 128.076 52.56C127.062 51.76 125.793 51.36 124.268 51.36C122.753 51.36 121.553 51.6267 120.668 52.16C119.782 52.6933 119.18 53.4773 118.86 54.512C118.54 55.5467 118.465 56.8107 118.636 58.304C118.785 59.5307 118.913 60.496 119.02 61.2C119.137 61.8933 119.254 62.4 119.372 62.72C119.5 63.04 119.644 63.248 119.804 63.344C119.974 63.44 120.182 63.5093 120.428 63.552C120.94 63.6267 121.457 63.7013 121.98 63.776C122.502 63.84 123.009 63.904 123.5 63.968C123.276 65.0027 123.228 65.744 123.356 66.192C123.484 66.6293 123.777 66.848 124.236 66.848C124.588 66.848 124.865 66.6773 125.068 66.336C125.281 65.984 125.441 65.3227 125.548 64.352C125.921 64.384 126.284 64.432 126.636 64.496C126.998 64.5493 127.34 64.608 127.66 64.672C127.276 66.4747 127.121 67.7333 127.196 68.448C127.281 69.152 127.628 69.504 128.236 69.504C128.481 69.504 128.7 69.3867 128.892 69.152C129.094 68.9173 129.27 68.48 129.42 67.84C129.569 67.1893 129.697 66.2507 129.804 65.024C130.401 65.1413 130.902 65.3227 131.308 65.568C131.713 65.8027 132.044 66.0853 132.3 66.416C132.556 66.736 132.737 67.088 132.844 67.472C132.961 67.856 133.02 68.256 133.02 68.672C133.02 70.0587 132.689 71.168 132.028 72C131.377 72.8427 130.385 73.264 129.052 73.264C128.497 73.264 127.953 73.152 127.42 72.928C126.897 72.7147 126.369 72.4053 125.836 72C125.302 71.6053 124.764 71.1413 124.22 70.608C123.676 70.064 123.116 69.4667 122.54 68.816C121.974 68.1547 121.377 67.4667 120.748 66.752C120.481 66.4427 120.236 66.3253 120.012 66.4C119.788 66.4747 119.692 66.6667 119.724 66.976C119.788 67.5307 119.868 68.08 119.964 68.624C120.07 69.168 120.161 69.7067 120.236 70.24C120.332 71.04 120.257 71.6267 120.012 72C119.766 72.384 119.244 72.576 118.444 72.576C117.761 72.576 117.292 72.3573 117.036 71.92C116.78 71.472 116.609 70.816 116.524 69.952ZM117.868 71.552C117.633 71.5627 117.452 71.4773 117.324 71.296C117.196 71.1147 117.132 70.9227 117.132 70.72C117.132 70.528 117.185 70.3573 117.292 70.208C117.398 70.048 117.569 69.9627 117.804 69.952L117.868 71.552ZM117.452 68.832C117.228 68.832 117.057 68.7413 116.94 68.56C116.833 68.368 116.78 68.1707 116.78 67.968C116.78 67.7227 116.844 67.504 116.972 67.312C117.1 67.1093 117.292 67.008 117.548 67.008L117.452 68.832ZM130.892 71.136C130.625 71.136 130.412 71.0613 130.252 70.912C130.102 70.7627 130.028 70.5707 130.028 70.336C130.028 69.9627 130.102 69.696 130.252 69.536C130.412 69.3653 130.604 69.28 130.828 69.28C131.201 69.28 131.468 69.36 131.628 69.52C131.798 69.6693 131.884 69.856 131.884 70.08C131.884 70.4107 131.793 70.672 131.612 70.864C131.441 71.0453 131.201 71.136 130.892 71.136ZM135.006 69.76C135.123 68.3413 135.251 66.768 135.39 65.04C135.539 63.312 135.688 61.5573 135.838 59.776C135.848 59.6693 135.859 59.5627 135.87 59.456C135.88 59.3493 135.891 59.2427 135.902 59.136C135.912 59.0293 135.923 58.9227 135.934 58.816C135.944 58.688 135.955 58.5653 135.966 58.448C135.976 58.32 135.987 58.192 135.998 58.064C136.008 57.936 136.019 57.8133 136.03 57.696C136.051 57.4933 136.067 57.296 136.078 57.104C136.099 56.9013 136.12 56.6987 136.142 56.496C136.163 56.3147 136.179 56.1333 136.19 55.952C136.211 55.7707 136.227 55.5947 136.238 55.424C136.259 55.232 136.275 55.0453 136.286 54.864C136.307 54.672 136.323 54.4907 136.334 54.32C136.355 54.192 136.371 54.064 136.382 53.936C136.392 53.808 136.403 53.6853 136.414 53.568C136.499 52.7147 136.734 52.0907 137.118 51.696C137.512 51.3013 138.12 50.9867 138.942 50.752C139.422 50.6133 139.992 50.4693 140.654 50.32C141.326 50.1707 142.014 50.032 142.718 49.904C143.432 49.7653 144.083 49.6587 144.67 49.584C145.256 49.4987 145.71 49.456 146.03 49.456C146.968 49.456 147.656 49.7547 148.094 50.352C148.531 50.9387 148.75 51.7227 148.75 52.704C148.75 53.536 148.616 54.304 148.35 55.008C148.094 55.712 147.715 56.2507 147.214 56.624C146.712 56.9867 146.099 57.0773 145.374 56.896C145.598 56.0747 145.784 55.3387 145.934 54.688C146.094 54.0373 146.131 53.5253 146.046 53.152C145.96 52.768 145.667 52.576 145.166 52.576C144.707 52.576 144.387 52.8853 144.206 53.504C144.024 54.1227 143.816 55.1253 143.582 56.512C143.294 56.4267 143.027 56.3573 142.782 56.304C142.536 56.24 142.259 56.1707 141.95 56.096C142.046 54.72 142.051 53.792 141.966 53.312C141.891 52.8213 141.619 52.576 141.15 52.576C140.851 52.576 140.627 52.6667 140.478 52.848C140.328 53.0187 140.227 53.3173 140.174 53.744C140.131 54.1707 140.115 54.752 140.126 55.488C140.03 55.456 139.934 55.4347 139.838 55.424C139.742 55.4027 139.646 55.392 139.55 55.392C139.283 55.392 139.086 55.4667 138.958 55.616C138.84 55.7653 138.771 55.9787 138.75 56.256C138.686 57.344 138.643 58.4427 138.622 59.552C138.6 60.6507 138.59 61.728 138.59 62.784C138.59 63.0827 138.696 63.3013 138.91 63.44C139.134 63.5787 139.454 63.584 139.87 63.456C140.83 63.1467 141.672 62.8853 142.398 62.672C143.123 62.4587 143.667 62.304 144.03 62.208C144.542 62.08 144.947 62.1653 145.246 62.464C145.544 62.7627 145.694 63.1147 145.694 63.52C145.694 63.7973 145.608 64.064 145.438 64.32C145.267 64.5653 144.99 64.736 144.606 64.832C144.467 64.864 144.323 64.9013 144.174 64.944C144.035 64.976 143.891 65.008 143.742 65.04C143.656 65.0613 143.571 65.0827 143.486 65.104C143.4 65.1253 143.315 65.1467 143.23 65.168C143.155 65.1787 143.086 65.1947 143.022 65.216C142.958 65.2267 142.894 65.2427 142.83 65.264C142.723 65.2853 142.622 65.312 142.526 65.344C142.43 65.3653 142.328 65.3867 142.222 65.408C142.179 65.4187 142.131 65.4293 142.078 65.44C142.035 65.4507 141.987 65.4613 141.934 65.472C141.891 65.4827 141.843 65.4933 141.79 65.504C141.736 65.5147 141.683 65.5253 141.63 65.536C141.587 65.5467 141.539 65.5627 141.486 65.584C141.432 65.5947 141.379 65.6053 141.326 65.616C141.176 65.648 141.027 65.6853 140.878 65.728C140.739 65.76 140.606 65.792 140.478 65.824C140.126 65.9093 139.902 66.032 139.806 66.192C139.72 66.352 139.699 66.56 139.742 66.816C139.795 67.1147 139.875 67.504 139.982 67.984C140.088 68.4533 140.211 68.864 140.35 69.216C140.467 69.504 140.611 69.68 140.782 69.744C140.952 69.808 141.171 69.792 141.438 69.696C142.142 69.4187 142.926 69.1147 143.79 68.784C144.664 68.4533 145.374 68.224 145.918 68.096C146.568 67.9467 147.059 68.0693 147.39 68.464C147.72 68.848 147.886 69.28 147.886 69.76C147.886 70.1227 147.795 70.4533 147.614 70.752C147.432 71.0507 147.155 71.232 146.782 71.296C145.47 71.52 144.014 71.7387 142.414 71.952C140.814 72.1547 139.251 72.2987 137.726 72.384C136.819 72.4267 136.12 72.24 135.63 71.824C135.139 71.408 134.931 70.72 135.006 69.76ZM140.766 70.08L142.845 70.016C142.91 70.3467 142.926 70.64 142.894 70.896C142.872 71.1413 142.792 71.344 142.654 71.504C142.515 71.6533 142.312 71.744 142.046 71.776C141.747 71.8187 141.507 71.7707 141.326 71.632C141.144 71.4933 141.011 71.2907 140.926 71.024C140.84 70.7467 140.787 70.432 140.766 70.08ZM144.414 70.272C144.403 70.176 144.387 70.08 144.366 69.984C144.355 69.888 144.35 69.792 144.35 69.696C144.35 69.4827 144.414 69.296 144.542 69.136C144.68 68.976 144.926 68.864 145.278 68.8C145.598 68.736 145.859 68.736 146.062 68.8C146.264 68.8533 146.387 69.0027 146.43 69.248C146.451 69.3227 146.467 69.408 146.478 69.504C146.499 69.5893 146.515 69.6747 146.526 69.76C146.579 70.0267 146.536 70.2613 146.398 70.464C146.259 70.656 146.014 70.7947 145.662 70.88C145.267 70.9547 144.974 70.9547 144.782 70.88C144.59 70.7947 144.467 70.592 144.414 70.272ZM141.661 60.864C141.107 60.864 140.696 60.7467 140.43 60.512C140.163 60.2773 140.03 59.84 140.03 59.2C140.03 58.8907 140.163 58.6027 140.43 58.336C140.696 58.0587 141.022 57.92 141.406 57.92C141.95 57.92 142.344 58.0427 142.59 58.288C142.846 58.5333 142.974 58.912 142.974 59.424C142.974 59.9147 142.851 60.2773 142.606 60.512C142.36 60.7467 142.046 60.864 141.661 60.864ZM142.238 51.104C142.238 50.976 142.296 50.8587 142.414 50.752C142.542 50.6347 142.718 50.5707 142.942 50.56C143.123 50.5387 143.294 50.56 143.454 50.624C143.624 50.688 143.71 50.7947 143.71 50.944C143.71 50.9867 143.71 51.0507 143.71 51.136C143.71 51.2213 143.71 51.296 143.71 51.36C143.71 51.5307 143.64 51.6693 143.502 51.776C143.363 51.8827 143.198 51.9467 143.006 51.968C142.835 51.9787 142.67 51.952 142.51 51.888C142.35 51.8133 142.259 51.68 142.238 51.488C142.238 51.424 142.238 51.36 142.238 51.296C142.238 51.232 142.238 51.168 142.238 51.104ZM138.302 53.184L138.141 54.464C137.875 54.432 137.678 54.3573 137.549 54.24C137.422 54.1227 137.363 53.952 137.374 53.728C137.395 53.472 137.496 53.3173 137.678 53.264C137.859 53.2107 138.067 53.184 138.302 53.184ZM150.11 68.864C150.26 68.448 150.516 67.744 150.878 66.752C151.241 65.7493 151.657 64.6027 152.126 63.312C152.596 62.0107 153.065 60.7147 153.534 59.424C153.577 59.328 153.614 59.232 153.646 59.136C153.678 59.04 153.71 58.9493 153.742 58.864C153.774 58.768 153.806 58.672 153.838 58.576C153.892 58.448 153.94 58.32 153.982 58.192C154.036 58.0533 154.084 57.92 154.126 57.792C154.254 57.4507 154.377 57.12 154.494 56.8C154.612 56.4693 154.724 56.1547 154.83 55.856C154.873 55.76 154.91 55.6693 154.942 55.584C154.974 55.488 155.006 55.3973 155.038 55.312C155.07 55.216 155.102 55.1253 155.134 55.04C155.188 54.88 155.241 54.7307 155.294 54.592C155.358 54.4427 155.412 54.2987 155.454 54.16C155.625 53.712 155.758 53.3547 155.854 53.088C155.961 52.8107 156.02 52.6507 156.03 52.608C156.372 51.7227 156.884 51.0667 157.566 50.64C158.249 50.2027 159.028 49.9947 159.902 50.016C160.82 50.0267 161.609 50.2667 162.27 50.736C162.932 51.2053 163.348 51.9147 163.518 52.864C163.54 52.992 163.561 53.12 163.582 53.248C163.614 53.376 163.636 53.504 163.646 53.632C162.366 53.76 161.502 53.9307 161.054 54.144C160.606 54.3467 160.382 54.6347 160.382 55.008C160.382 55.4667 160.537 55.7653 160.846 55.904C161.166 56.032 161.598 56.064 162.142 56C162.697 55.936 163.326 55.84 164.03 55.712C164.094 56.032 164.158 56.352 164.222 56.672C164.286 56.992 164.34 57.312 164.382 57.632C163.39 57.76 162.692 57.9253 162.286 58.128C161.892 58.3307 161.694 58.6347 161.694 59.04C161.694 59.5093 161.849 59.808 162.158 59.936C162.468 60.064 162.857 60.096 163.326 60.032C163.796 59.9573 164.276 59.8507 164.766 59.712C164.98 60.7787 165.188 61.8453 165.39 62.912C165.593 63.9787 165.79 65.04 165.982 66.096C166.174 67.152 166.366 68.208 166.558 69.264C166.75 70.3093 166.932 71.3493 167.102 72.384C167.22 72.9707 167.156 73.424 166.91 73.744C166.665 74.0747 166.366 74.24 166.014 74.24C165.748 74.24 165.476 74.1387 165.198 73.936C164.921 73.7333 164.702 73.4187 164.542 72.992C163.678 70.6027 162.82 68.1387 161.966 65.6C161.113 63.0507 160.276 60.64 159.454 58.368C159.23 57.7387 159.006 57.2853 158.782 57.008C158.569 56.72 158.27 56.576 157.886 56.576C157.524 56.576 157.22 56.704 156.974 56.96C156.74 57.216 156.532 57.696 156.35 58.4C155.86 60.2987 155.374 62.2293 154.894 64.192C154.414 66.1547 153.94 68.0427 153.47 69.856C153.31 70.4427 153.06 70.8693 152.718 71.136C152.377 71.392 152.02 71.52 151.646 71.52C150.964 71.52 150.473 71.264 150.174 70.752C149.876 70.2293 149.854 69.6 150.11 68.864ZM153.342 63.968L153.95 61.952C154.452 61.9307 154.942 61.92 155.422 61.92C155.913 61.92 156.404 61.9307 156.894 61.952C157.63 61.984 158.18 62.0747 158.542 62.224C158.916 62.3733 159.102 62.688 159.102 63.168C159.102 63.6267 158.942 63.9413 158.622 64.112C158.302 64.272 157.684 64.3307 156.766 64.288C156.19 64.256 155.614 64.2133 155.038 64.16C154.473 64.096 153.908 64.032 153.342 63.968ZM153.662 68.096C153.172 68.032 152.777 67.8987 152.478 67.696C152.18 67.4933 152.03 67.232 152.03 66.912C152.03 66.4107 152.222 66.096 152.606 65.968C153.001 65.84 153.47 65.8027 154.014 65.856C155.412 65.9627 156.873 66.0907 158.398 66.24C159.934 66.3787 161.46 66.528 162.974 66.688L163.614 69.12C161.822 68.96 160.073 68.7947 158.366 68.624C156.67 68.4427 155.102 68.2667 153.662 68.096ZM154.686 57.248C153.972 56.9493 153.396 56.688 152.958 56.464C152.532 56.2293 152.222 56.0053 152.03 55.792C151.838 55.5787 151.742 55.3493 151.742 55.104C151.742 54.6027 151.924 54.2987 152.286 54.192C152.649 54.0747 153.124 54.096 153.71 54.256C154.308 54.4053 154.937 54.624 155.598 54.912L154.686 57.248ZM153.566 60.96C152.724 60.7253 152.052 60.5173 151.55 60.336C151.06 60.1547 150.708 59.9733 150.494 59.792C150.281 59.6 150.174 59.3813 150.174 59.136C150.174 58.624 150.356 58.3147 150.718 58.208C151.081 58.0907 151.561 58.1067 152.158 58.256C152.766 58.3947 153.428 58.592 154.142 58.848L153.566 60.96ZM162.558 64.128L162.078 61.728C162.622 61.632 163.06 61.5893 163.39 61.6C163.732 61.6 163.977 61.7173 164.126 61.952C164.276 62.176 164.35 62.5707 164.35 63.136C164.35 63.5307 164.201 63.7813 163.902 63.888C163.604 63.9947 163.156 64.0747 162.558 64.128ZM163.71 69.248L163.23 66.688C163.785 66.5707 164.228 66.5227 164.558 66.544C164.889 66.5653 165.129 66.704 165.278 66.96C165.428 67.216 165.502 67.6373 165.502 68.224C165.502 68.6507 165.353 68.9227 165.054 69.04C164.756 69.1467 164.308 69.216 163.71 69.248ZM170.988 69.472C170.977 69.2587 170.961 69.0507 170.94 68.848C170.929 68.6347 170.913 68.4267 170.892 68.224C170.881 68.096 170.871 67.968 170.86 67.84C170.849 67.712 170.839 67.584 170.828 67.456C170.817 67.328 170.807 67.2 170.796 67.072C170.796 66.9547 170.791 66.8373 170.78 66.72C170.78 66.6027 170.775 66.4907 170.764 66.384C170.753 66.2667 170.743 66.1547 170.732 66.048C170.7 65.696 170.673 65.344 170.652 64.992C170.631 64.64 170.604 64.288 170.572 63.936C170.572 63.776 170.567 63.616 170.556 63.456C170.545 63.296 170.529 63.136 170.508 62.976C170.497 62.8587 170.487 62.7467 170.476 62.64C170.476 62.5227 170.471 62.4107 170.46 62.304C170.46 62.1867 170.455 62.0693 170.444 61.952C170.348 60.416 170.252 58.8747 170.156 57.328C170.071 55.7813 169.985 54.24 169.9 52.704C169.868 52.0427 169.975 51.4667 170.22 50.976C170.465 50.4747 170.913 50.0907 171.564 49.824C172.225 49.5467 173.153 49.408 174.348 49.408C176.855 49.408 178.961 49.8293 180.668 50.672C182.385 51.504 183.681 52.7947 184.556 54.544C185.431 56.2827 185.868 58.5173 185.868 61.248C185.868 63.4773 185.452 65.424 184.62 67.088C183.799 68.7413 182.599 70.0267 181.02 70.944C179.441 71.8613 177.516 72.32 175.244 72.32C174.263 72.32 173.468 72.2507 172.86 72.112C172.263 71.984 171.815 71.7173 171.516 71.312C171.228 70.9067 171.052 70.2933 170.988 69.472ZM173.356 65.6C173.388 66.208 173.543 66.624 173.82 66.848C174.097 67.0613 174.497 67.168 175.02 67.168C175.937 67.168 176.78 66.8853 177.548 66.32C178.327 65.744 178.999 64.9973 179.564 64.08C180.14 63.152 180.588 62.1493 180.908 61.072C181.228 59.984 181.388 58.9333 181.388 57.92C181.388 56.9707 181.239 56.1227 180.94 55.376C180.641 54.6187 180.22 53.9733 179.676 53.44C179.132 52.896 178.492 52.4853 177.756 52.208C177.031 51.92 176.236 51.776 175.372 51.776C174.433 51.776 173.793 51.9893 173.452 52.416C173.121 52.832 172.961 53.4827 172.972 54.368C173.004 56.2347 173.052 58.1067 173.116 59.984C173.18 61.8507 173.26 63.7227 173.356 65.6ZM181.708 67.776C182.156 67.776 182.497 67.6533 182.732 67.408C182.967 67.152 183.084 66.8587 183.084 66.528C183.084 66.0587 182.945 65.68 182.668 65.392C182.401 65.104 182.049 64.96 181.612 64.96C181.217 64.96 180.892 65.0987 180.636 65.376C180.391 65.6427 180.268 65.9947 180.268 66.432C180.268 66.848 180.401 67.1787 180.668 67.424C180.935 67.6587 181.281 67.776 181.708 67.776ZM178.38 70.24C178.785 70.24 179.089 70.128 179.292 69.904C179.495 69.68 179.596 69.4187 179.596 69.12C179.596 68.7467 179.495 68.4587 179.292 68.256C179.1 68.0427 178.881 67.936 178.636 67.936C178.156 67.936 177.809 68.0373 177.596 68.24C177.393 68.4427 177.292 68.6827 177.292 68.96C177.292 69.3547 177.393 69.6693 177.596 69.904C177.799 70.128 178.06 70.24 178.38 70.24ZM183.468 63.744C183.809 63.744 184.065 63.6427 184.236 63.44C184.407 63.2373 184.492 62.944 184.492 62.56C184.492 62.2187 184.401 61.9467 184.22 61.744C184.039 61.5413 183.713 61.44 183.244 61.44C182.956 61.44 182.705 61.5307 182.492 61.712C182.289 61.8933 182.188 62.1547 182.188 62.496C182.188 62.944 182.284 63.264 182.476 63.456C182.679 63.648 183.009 63.744 183.468 63.744ZM169.484 53.92C170.252 53.9307 171.079 53.9627 171.964 54.016C172.849 54.0693 173.548 54.1227 174.06 54.176C174.913 54.24 175.484 54.352 175.772 54.512C176.06 54.672 176.204 54.9227 176.204 55.264C176.204 55.6267 176.049 55.8827 175.74 56.032C175.431 56.1707 174.924 56.256 174.22 56.288C173.783 56.2987 173.276 56.304 172.7 56.304C172.124 56.304 171.553 56.2987 170.988 56.288C170.423 56.2773 169.932 56.2667 169.516 56.256C168.78 56.224 168.236 56.1173 167.884 55.936C167.543 55.7547 167.372 55.4667 167.372 55.072C167.372 54.6347 167.564 54.3307 167.948 54.16C168.332 53.9787 168.844 53.8987 169.484 53.92ZM169.196 58.496C169.921 58.4 170.743 58.2987 171.66 58.192C172.588 58.0747 173.377 57.9947 174.028 57.952C174.817 57.888 175.388 57.9413 175.74 58.112C176.092 58.272 176.268 58.56 176.268 58.976C176.268 59.3707 176.103 59.6693 175.772 59.872C175.452 60.064 174.913 60.192 174.156 60.256C173.58 60.32 172.828 60.384 171.9 60.448C170.983 60.5013 170.145 60.544 169.388 60.576C168.716 60.608 168.236 60.544 167.948 60.384C167.671 60.2133 167.532 59.968 167.532 59.648C167.532 59.328 167.665 59.0773 167.932 58.896C168.199 58.704 168.62 58.5707 169.196 58.496ZM174.924 69.92C175.02 69.984 175.111 70.064 175.196 70.16C175.292 70.256 175.361 70.336 175.404 70.4C175.479 70.496 175.532 70.5867 175.564 70.672C175.596 70.7573 175.612 70.8427 175.612 70.928C175.612 71.1627 175.516 71.3653 175.324 71.536C175.143 71.696 174.929 71.7867 174.684 71.808C174.439 71.8293 174.22 71.7547 174.028 71.584C173.964 71.5307 173.9 71.4667 173.836 71.392C173.783 71.3173 173.729 71.2427 173.676 71.168C173.612 71.0827 173.564 70.992 173.532 70.896C173.511 70.8 173.5 70.7147 173.5 70.64C173.5 70.288 173.66 70.0267 173.98 69.856C174.3 69.6747 174.615 69.696 174.924 69.92ZM194.832 71.968C193.797 71.968 192.874 71.808 192.064 71.488C191.253 71.168 190.565 70.752 190 70.24C189.434 69.7173 189.002 69.1627 188.704 68.576C188.416 67.9787 188.272 67.4133 188.272 66.88C188.272 66.5067 188.362 66.2347 188.544 66.064C188.725 65.8827 188.944 65.792 189.2 65.792C189.488 65.792 189.712 65.8667 189.872 66.016C190.032 66.1547 190.181 66.4 190.32 66.752C190.458 67.0827 190.666 67.4827 190.944 67.952C191.232 68.4107 191.632 68.816 192.144 69.168C192.656 69.52 193.317 69.696 194.128 69.696C194.821 69.696 195.376 69.488 195.792 69.072C196.218 68.6453 196.432 68.064 196.432 67.328C196.432 66.688 196.298 66.1387 196.032 65.68C195.765 65.2213 195.408 64.816 194.96 64.464C194.522 64.1013 194.037 63.7493 193.504 63.408C192.981 63.0667 192.453 62.6987 191.92 62.304C191.397 61.8987 190.912 61.424 190.464 60.88C190.026 60.336 189.674 59.68 189.408 58.912C189.141 58.144 189.008 57.216 189.008 56.128C189.008 54.848 189.274 53.6907 189.808 52.656C190.352 51.6213 191.152 50.8 192.208 50.192C193.274 49.584 194.586 49.28 196.144 49.28C196.965 49.28 197.696 49.36 198.336 49.52C198.976 49.68 199.52 49.8933 199.968 50.16C200.426 50.4267 200.773 50.72 201.008 51.04C201.242 51.36 201.36 51.68 201.36 52C201.36 52.352 201.28 52.6347 201.12 52.848C200.96 53.0507 200.709 53.152 200.368 53.152C200.069 53.152 199.792 53.072 199.536 52.912C199.28 52.752 198.997 52.5653 198.688 52.352C198.378 52.1387 197.994 51.952 197.536 51.792C197.088 51.632 196.506 51.552 195.792 51.552C194.533 51.552 193.573 51.872 192.912 52.512C192.25 53.1413 191.92 53.9307 191.92 54.88C191.92 55.6693 192.112 56.304 192.496 56.784C192.88 57.264 193.392 57.6533 194.032 57.952C194.672 58.24 195.37 58.5013 196.128 58.736C196.885 58.96 197.642 59.216 198.4 59.504C199.157 59.792 199.856 60.1653 200.496 60.624C201.136 61.0827 201.648 61.6907 202.032 62.448C202.416 63.1947 202.608 64.16 202.608 65.344C202.608 66.5173 202.394 67.5253 201.968 68.368C201.552 69.2 200.981 69.8827 200.256 70.416C199.53 70.9493 198.698 71.344 197.76 71.6C196.832 71.8453 195.856 71.968 194.832 71.968ZM199.152 68.608C199.877 68.608 200.24 68.256 200.24 67.552C200.24 67.2747 200.154 67.056 199.984 66.896C199.813 66.736 199.568 66.656 199.248 66.656C198.917 66.656 198.672 66.7307 198.512 66.88C198.362 67.0293 198.288 67.2747 198.288 67.616C198.288 67.9467 198.373 68.1973 198.544 68.368C198.725 68.528 198.928 68.608 199.152 68.608ZM199.248 65.248C199.557 65.248 199.813 65.1467 200.016 64.944C200.229 64.7413 200.336 64.48 200.336 64.16C200.336 63.712 200.229 63.3813 200.016 63.168C199.813 62.9547 199.568 62.848 199.28 62.848C198.821 62.848 198.48 62.944 198.256 63.136C198.042 63.3173 197.936 63.648 197.936 64.128C197.936 64.4587 198.048 64.7307 198.272 64.944C198.496 65.1467 198.821 65.248 199.248 65.248ZM196.336 62.816C196.688 62.816 196.938 62.7253 197.088 62.544C197.248 62.352 197.328 62.0907 197.328 61.76C197.328 61.536 197.242 61.344 197.072 61.184C196.901 61.0133 196.677 60.928 196.4 60.928C196.112 60.928 195.877 61.0027 195.696 61.152C195.525 61.3013 195.44 61.5147 195.44 61.792C195.44 62.112 195.514 62.3627 195.664 62.544C195.824 62.7253 196.048 62.816 196.336 62.816ZM197.296 56.8C196.741 56.8 196.32 56.6613 196.032 56.384C195.744 56.1067 195.6 55.776 195.6 55.392C195.6 54.88 195.728 54.4747 195.984 54.176C196.25 53.8773 196.592 53.728 197.008 53.728C197.584 53.728 198.005 53.8613 198.272 54.128C198.538 54.3947 198.672 54.6987 198.672 55.04C198.672 55.648 198.549 56.096 198.304 56.384C198.069 56.6613 197.733 56.8 197.296 56.8ZM197.872 70.4L199.216 69.472C199.952 70.4427 200.501 71.2107 200.864 71.776C201.237 72.3307 201.429 72.7573 201.44 73.056C201.45 73.3653 201.296 73.6213 200.976 73.824C200.666 74.016 200.378 74.032 200.112 73.872C199.845 73.7227 199.536 73.3653 199.184 72.8C198.842 72.2347 198.405 71.4347 197.872 70.4ZM195.28 71.36L196.944 71.072C197.168 72.2987 197.312 73.2267 197.376 73.856C197.44 74.4853 197.413 74.9173 197.296 75.152C197.178 75.3867 196.965 75.5307 196.656 75.584C196.282 75.648 196.01 75.568 195.84 75.344C195.669 75.12 195.546 74.688 195.472 74.048C195.408 73.4187 195.344 72.5227 195.28 71.36ZM192.272 70.848L193.872 71.456C193.594 72.4267 193.354 73.1787 193.152 73.712C192.949 74.2453 192.73 74.592 192.496 74.752C192.272 74.912 191.984 74.9227 191.632 74.784C191.322 74.6667 191.146 74.4587 191.104 74.16C191.072 73.872 191.157 73.4613 191.36 72.928C191.562 72.3947 191.866 71.7013 192.272 70.848ZM191.248 69.472C191.269 69.4507 191.285 69.4293 191.296 69.408C191.317 69.376 191.333 69.3547 191.344 69.344C191.44 69.216 191.584 69.1627 191.776 69.184C191.978 69.1947 192.165 69.2587 192.336 69.376C192.517 69.472 192.65 69.6 192.736 69.76C192.832 69.9093 192.837 70.0587 192.752 70.208C192.741 70.24 192.72 70.2773 192.688 70.32C192.656 70.3627 192.624 70.4 192.592 70.432C192.474 70.592 192.336 70.6933 192.176 70.736C192.026 70.7787 191.877 70.7733 191.728 70.72C191.578 70.6667 191.45 70.5813 191.344 70.464C191.258 70.3787 191.189 70.2827 191.136 70.176C191.093 70.0587 191.077 69.9413 191.088 69.824C191.098 69.7067 191.152 69.5893 191.248 69.472ZM190.064 68.288L191.12 69.92C190.384 70.624 189.792 71.1573 189.344 71.52C188.906 71.8827 188.554 72.08 188.288 72.112C188.021 72.1547 187.781 72.0427 187.568 71.776C187.365 71.5307 187.312 71.264 187.408 70.976C187.514 70.688 187.781 70.336 188.208 69.92C188.645 69.4933 189.264 68.9493 190.064 68.288Z" fill="black"/>
</svg>
